<svg height="47" width="35" viewBox="0 0 1168.9 552.3" xmlns="http://www.w3.org/2000/svg">
  <path d="m481.7 338.4c22.5-7.5 46.5-11.5 71.4-11.5 109 0 200 77.4 220.8 180.3l154.5-31.5c-35.4-174.8-190-306.4-375.3-306.4-42.5 0-83.2 6.9-121.4 19.7z" fill="#ffcb05"/>
  <path d="m299.4 839 104.5-118.1c-46.6-41.3-76-101.6-76-168.8 0-67.1 29.4-127.4 76-168.6l-104.5-118.2c-79.2 70.2-129.2 172.7-129.2 286.8 0 114.2 50 216.7 129.2 286.9" fill="#00a4e0"/>
  <path d="m773.9 597.3c-20.9 102.8-111.8 180.1-220.7 180.1-25 0-49.1-4-71.5-11.6l-50 149.6c38.2 12.7 79 19.6 121.5 19.6 185.1 0 339.6-131.4 375.2-306z" fill="#ef4123"/>
</svg>